<?xml version="1.0" encoding="UTF-8"?>
<svg xmlns="http://www.w3.org/2000/svg" width="178" height="13" viewBox="0 0 178 13" fill="none">
  <path d="M95.0755 9.64649L95.0133 9.64936C94.8834 9.66185 94.7637 9.71237 94.6768 9.79134C94.59 9.87031 94.5422 9.97223 94.5424 10.0778L94.5375 12.369C94.5366 12.5697 94.605 12.6493 94.8902 12.6459C95.8599 12.6344 96.8299 12.6357 97.7996 12.6453C98.069 12.6482 98.141 12.5712 98.1408 12.3807L98.1386 10.0772C98.1383 9.96304 98.0819 9.85361 97.9817 9.77288C97.8816 9.69215 97.7459 9.64671 97.6043 9.64649L95.0755 9.64649ZM138.627 9.64631C138.344 9.64633 138.072 9.73708 137.872 9.89859C137.672 10.0601 137.559 10.2792 137.559 10.5076V11.7994C137.559 12.0279 137.672 12.2469 137.872 12.4084C138.072 12.57 138.344 12.6607 138.627 12.6607H140.229C140.369 12.6607 140.508 12.6385 140.638 12.5952C140.767 12.5519 140.885 12.4885 140.984 12.4085C141.083 12.3285 141.162 12.2335 141.216 12.129C141.269 12.0246 141.297 11.9126 141.297 11.7994V10.5076C141.297 10.3945 141.269 10.2825 141.216 10.178C141.162 10.0735 141.083 9.97854 140.984 9.89856C140.885 9.81858 140.767 9.75514 140.638 9.71186C140.508 9.66857 140.369 9.6463 140.229 9.6463L138.627 9.64631ZM43.3909 5.33412L42.7622 5.3343C42.722 5.3343 42.6845 5.33466 42.6494 5.33538H42.6032C42.2506 5.33627 42.1907 5.37766 42.1907 5.61614C42.1904 5.79657 42.1904 5.97706 42.1904 6.15761V6.70248L42.1902 6.6928V11.5758L42.1909 11.7401V12.354C42.1909 12.5772 42.2413 12.6339 42.5185 12.6434C42.553 12.645 42.5907 12.6455 42.6325 12.6457C42.8398 12.6457 43.0471 12.6458 43.2545 12.6459C43.45 12.646 43.6455 12.646 43.8411 12.6459L43.9349 12.6455L48.5978 12.6459L53.4673 12.6457C53.8467 12.6457 53.918 12.5916 53.9198 12.2945C53.9227 11.8143 53.9228 11.3341 53.9202 10.8539C53.9189 10.5452 53.8529 10.496 53.4515 10.496C51.6593 10.4956 49.867 10.4955 48.0747 10.4956C47.1694 10.4956 46.2642 10.4955 45.359 10.4954L44.8563 10.4952V7.48475C45.9175 7.48475 46.9786 7.48469 48.0396 7.48457H50.7341L53.4291 7.48403C53.8349 7.48386 53.9198 7.41935 53.9209 7.11261C53.9222 6.65195 53.9222 6.19129 53.9209 5.73063C53.9202 5.38877 53.8471 5.33484 53.378 5.33448C52.2257 5.33376 51.0734 5.3337 49.9211 5.3343L43.6368 5.33394L43.3909 5.33412ZM167.966 5.33484H167.969L166.436 5.33556C166.946 5.3352 167.456 5.33496 167.966 5.33484C167.441 5.33358 166.917 5.33376 166.392 5.33538C166.039 5.33627 165.979 5.37766 165.979 5.61614C165.979 5.84459 165.979 6.07304 165.979 6.30148V9.42628L165.979 10.4952L165.979 10.4954V12.6459H177.71V10.4954L168.645 10.4952L168.645 7.48439H171.843C173.641 7.48456 175.439 7.48444 177.236 7.48403C177.614 7.48385 177.707 7.41558 177.708 7.13804C177.711 6.65624 177.711 6.17444 177.709 5.69265C177.707 5.40758 177.621 5.33555 177.25 5.33537C175.529 5.33447 173.809 5.33399 172.088 5.33394C170.714 5.33394 169.34 5.33424 167.966 5.33483M102.659 4.3406C102.645 4.34047 102.631 4.34198 102.618 4.34508C102.53 4.36694 102.474 4.5058 102.425 4.60058C102.411 4.65622 102.409 4.71344 102.42 4.76954L102.42 11.8251C102.42 12.0091 102.421 12.187 102.421 12.3565C102.421 12.6394 102.448 12.6602 102.781 12.6604C103.568 12.6609 104.356 12.661 105.145 12.6606C105.495 12.6604 105.501 12.6554 105.501 12.3613V12.1257C105.501 11.8869 105.501 11.6386 105.501 11.3839L105.502 10.9976C105.502 10.8677 105.502 10.7364 105.502 10.6047L105.502 9.88461C105.501 9.06131 105.499 8.24033 105.494 7.5222C105.489 7.38456 105.435 7.25102 105.339 7.13716C105.071 6.827 104.799 6.51876 104.525 6.21243L103.702 5.29255C103.454 5.0143 103.215 4.72905 102.951 4.4619C102.876 4.39289 102.772 4.34948 102.659 4.3406H102.659M58.3918 4.34543C58.307 4.36837 58.2506 4.49487 58.2068 4.58445C58.1932 4.61861 58.189 4.65474 58.1944 4.69035L58.1993 4.74679L58.2001 4.77456V8.28817L58.1999 9.53952V11.108L58.2001 11.6855C58.2004 11.9202 58.2006 12.1465 58.2008 12.3595C58.201 12.6382 58.2304 12.6602 58.5642 12.6604C59.3528 12.6609 60.1413 12.6609 60.9296 12.6604C61.2683 12.6604 61.2808 12.6516 61.281 12.3782V12.1938C61.2814 11.6971 61.2819 11.1578 61.2821 10.6063V10.0718C61.2819 9.1783 61.2801 8.27849 61.2754 7.49764C61.2702 7.37348 61.2208 7.25315 61.1333 7.15094C60.4 6.31707 59.6549 5.49053 58.9134 4.66185C58.8594 4.58221 58.7919 4.50895 58.7131 4.44416C58.6334 4.38911 58.5362 4.35317 58.4325 4.34041C58.4187 4.34029 58.405 4.34198 58.3919 4.34543M29.8502 0.914068C28.3626 1.31506 27.2428 2.04914 26.8891 3.33973C26.4735 4.85823 27.1017 6.15653 28.8986 6.83811C29.9231 7.22674 31.0427 7.45214 32.1227 7.74329C32.1578 7.75279 32.193 7.76222 32.2284 7.7716L32.4399 7.82751C32.9786 7.94558 33.4872 8.13937 33.9425 8.39997C34.1168 8.50266 34.256 8.63942 34.3468 8.79741C34.4376 8.9554 34.4771 9.12941 34.4616 9.30311C34.4462 9.4768 34.3762 9.64447 34.2583 9.79035C34.1404 9.93624 33.9784 10.0555 33.7876 10.1371C33.3203 10.3338 32.7944 10.4218 32.2686 10.3911C31.1749 10.3564 30.1071 10.1122 29.1534 9.67891C28.4876 9.38346 27.861 9.0303 27.1848 8.68665C27.199 8.67823 27.1695 8.68665 27.1597 8.70295C26.7645 9.35676 26.3673 10.0098 25.9841 10.6683C25.9735 10.704 25.9741 10.7412 25.986 10.7766C25.9978 10.812 26.0205 10.8445 26.0519 10.871C26.5214 11.1494 27.0085 11.4079 27.5113 11.6455C28.6491 12.1497 29.8976 12.4706 31.1873 12.5903C32.4836 12.7314 33.8029 12.6228 35.0371 12.2734C35.9312 12.0293 36.7052 11.5613 37.2465 10.9376C37.7801 10.2841 38.0128 9.50042 37.9043 8.72284C37.8794 8.22053 37.6849 7.73325 37.3417 7.31362C36.9985 6.89399 36.5197 6.55795 35.957 6.34179C35.0937 6.02282 34.2085 5.74375 33.3058 5.50594C32.5381 5.27051 31.7546 5.06446 31.0045 4.79677C30.7577 4.71501 30.552 4.56895 30.4202 4.38189C30.2884 4.19484 30.238 3.97756 30.2772 3.76473C30.3305 3.31912 30.6979 3.09157 31.2053 2.97958C31.9264 2.84461 32.6781 2.85866 33.3907 3.02044C34.4364 3.2158 35.4393 3.5383 36.3649 3.97687C36.5135 4.04692 36.6139 4.06896 36.7039 3.90788C37.0417 3.30138 37.3912 2.69899 37.7443 2.0984C37.7696 2.0706 37.7862 2.03834 37.7928 2.00431C37.7995 1.97028 37.796 1.93547 37.7826 1.90275C37.7692 1.87004 37.7464 1.84037 37.7159 1.81622C37.6854 1.79207 37.6483 1.77412 37.6075 1.76388C36.5091 1.2613 35.313 0.912755 34.07 0.733102C33.4867 0.648661 32.8955 0.605079 32.3029 0.602842C31.4698 0.598571 30.6414 0.703687 29.8502 0.914068ZM58.5107 0.602842C58.2708 0.602842 58.191 0.692253 58.1961 0.875546C58.2026 1.11188 58.2088 1.34875 58.1939 1.58454C58.1847 1.75615 58.2576 1.92406 58.3974 2.05362C59.3226 3.0088 60.2433 3.96684 61.1595 4.92775C63.5752 7.44927 65.9897 9.97163 68.4029 12.4948C68.4484 12.5461 68.5095 12.5869 68.5804 12.6134C68.6512 12.6399 68.7294 12.6511 68.8072 12.6459C69.3777 12.6419 69.9484 12.6423 70.5188 12.643C70.7392 12.6432 70.9594 12.6433 71.1797 12.6434H71.2519C71.556 12.6421 71.5773 12.6253 71.5786 12.3827L71.5788 12.3248C71.5791 10.4266 71.5791 8.52838 71.5791 6.63009V3.78283L71.5786 0.93539C71.5786 0.612876 71.5702 0.606249 71.1861 0.605888C70.4128 0.60553 69.6397 0.60553 68.8665 0.605888C68.4374 0.605888 68.4065 0.609472 68.4043 0.912276L68.4041 0.974629C68.4041 3.23097 68.4021 5.48731 68.3981 7.74366C68.3726 7.84708 68.3247 7.94607 68.2566 8.03607C68.1473 7.99045 68.0471 7.93199 67.9591 7.86263C66.9282 6.7573 65.9017 5.64923 64.8798 4.53841C63.7167 3.28114 62.5511 2.02549 61.3829 0.771448C61.3388 0.727232 61.2843 0.69048 61.2225 0.6633C61.1607 0.636119 61.0928 0.619046 61.0229 0.613058C60.5446 0.605353 60.0666 0.60553 59.5881 0.605891C59.2318 0.605891 58.8752 0.60607 58.5191 0.602845H58.5107M79.285 10.0887C79.2933 8.93535 79.2893 7.78218 79.2893 6.62902C79.2893 5.48302 79.2953 4.33702 79.2833 3.19084C79.2813 2.99841 79.3563 2.94645 79.5878 2.94627C80.499 2.94555 81.4109 2.91007 82.3217 2.92727C83.9231 2.95755 85.2241 3.45476 86.0789 4.56779C86.6704 5.36135 86.8989 6.29683 86.7249 7.21205C86.6435 7.89505 86.3179 8.54427 85.7877 9.08084C84.8874 9.96667 83.6805 10.3413 82.2706 10.346C81.922 10.3472 81.5735 10.3467 81.225 10.3463C80.6887 10.3456 80.1529 10.3447 79.6169 10.3499H79.604C79.3666 10.3499 79.2837 10.2826 79.285 10.0887M76.3744 0.604455C75.8977 0.604455 75.8506 0.641367 75.8506 1.02283C75.8503 2.88517 75.8503 4.74745 75.8503 6.60967V11.7808C75.8503 11.9765 75.8506 12.1723 75.8532 12.368C75.8559 12.5486 75.9583 12.6403 76.2046 12.6362C76.9812 12.6238 77.7581 12.6308 78.5351 12.6376C80.1399 12.6804 81.7465 12.6379 83.3444 12.5102C84.7032 12.3778 86.0089 12.1426 87.1465 11.502C88.0534 11.0073 88.806 10.3501 89.3454 9.58163C89.9372 8.71113 90.2528 7.73606 90.264 6.74333C90.3024 5.89604 90.1202 5.05167 89.7293 4.26463C89.0971 2.99984 87.9147 1.96449 86.4037 1.35269C85.0959 0.834968 83.6528 0.578758 82.1964 0.605709C81.4247 0.603561 80.6531 0.602605 79.8817 0.602842C78.7128 0.602842 77.5437 0.60338 76.3744 0.604455ZM102.704 0.602842C102.502 0.602842 102.42 0.682219 102.42 0.838456C102.421 0.874473 102.42 0.910305 102.42 0.94614L102.414 1.16151C102.409 1.30447 102.413 1.44758 102.428 1.59009C102.443 1.74932 102.509 1.90267 102.62 2.03498C103.523 2.99536 104.443 3.94427 105.357 4.89783C107.778 7.42527 110.198 9.95348 112.616 12.4825C112.663 12.5372 112.726 12.5811 112.801 12.6097C112.875 12.6384 112.957 12.6509 113.039 12.6459C113.83 12.6391 114.62 12.643 115.411 12.643C115.798 12.6428 115.799 12.6426 115.799 12.3164V6.64263L115.799 0.904572C115.799 0.613951 115.787 0.604811 115.424 0.604634C114.634 0.603917 113.843 0.603857 113.053 0.604452C112.642 0.604452 112.628 0.615561 112.628 0.961012V3.2247C112.628 4.73388 112.627 6.24301 112.623 7.75208C112.6 7.84996 112.556 7.94402 112.495 8.03034C112.383 7.9924 112.28 7.93932 112.191 7.87338C110.964 6.55645 109.742 5.23683 108.525 3.91452C107.558 2.8685 106.589 1.82356 105.618 0.77969C105.54 0.691195 105.422 0.631026 105.289 0.612159C104.724 0.603024 104.158 0.60338 103.592 0.603738C103.297 0.60392 103.002 0.604276 102.707 0.602842H102.704ZM125.733 0.815525C124.474 1.0536 123.314 1.55094 122.365 2.25895C121.582 2.84363 120.971 3.56208 120.577 4.36174C120.158 5.23175 119.993 6.16781 120.094 7.09755C120.169 8.11941 120.577 9.10717 121.278 9.96094C122.618 11.5819 124.533 12.4063 126.873 12.6115C127.796 12.6844 128.728 12.6341 129.63 12.4626C130.948 12.2369 132.197 11.8023 133.304 11.1842C133.348 11.1551 133.384 11.119 133.41 11.0783C133.436 11.0376 133.451 10.993 133.455 10.9473C133.464 9.57051 133.459 8.19392 133.464 6.81714C133.465 6.63761 133.381 6.57113 133.162 6.57328C132.681 6.57776 132.2 6.57723 131.718 6.57651C131.478 6.57615 131.237 6.57603 130.997 6.57615C130.67 6.57651 130.658 6.58779 130.657 6.8639L130.658 8.18836C130.657 8.63003 130.656 9.07133 130.651 9.51281C130.649 9.55702 130.636 9.60044 130.611 9.63995C130.587 9.67947 130.551 9.71413 130.508 9.74144C129.71 10.0969 128.822 10.3004 127.911 10.3363C127.081 10.3645 126.261 10.1894 125.557 9.83425C124.665 9.3874 123.986 8.71151 123.628 7.91541C123.271 7.11931 123.256 6.24933 123.586 5.44555C124.144 4.0161 125.386 3.18778 127.189 2.95862C128.406 2.82249 129.643 3.04125 130.678 3.57551C131.049 3.75218 131.385 3.97758 131.798 4.21552C131.836 4.16112 131.878 4.10831 131.923 4.05731C132.405 3.55401 132.887 3.05137 133.37 2.54938C133.567 2.34369 133.56 2.31968 133.299 2.15484C132.214 1.46338 130.946 0.982888 129.593 0.750651C129.025 0.652222 128.445 0.602676 127.864 0.602842C127.146 0.604702 126.43 0.676107 125.733 0.815525ZM148.938 0.602842C148.269 0.608041 147.599 0.607501 146.93 0.606607C146.63 0.606249 146.331 0.606069 146.032 0.606067C145.602 0.606607 145.568 0.634915 145.568 0.984665V12.3336L145.569 12.4086C145.573 12.5728 145.657 12.6484 145.876 12.6459C146.42 12.6399 146.964 12.6408 147.508 12.6419C147.724 12.6421 147.939 12.6426 148.154 12.6425C148.54 12.6423 148.551 12.6346 148.551 12.3174C148.552 11.1292 148.552 9.94087 148.551 8.75259C148.552 7.48582 148.554 6.21894 148.557 4.95194C148.557 4.87346 148.572 4.79516 148.581 4.71669L148.654 4.70844C148.737 4.83763 148.823 4.96556 148.902 5.09636C150.134 7.12407 151.363 9.15251 152.591 11.1817C152.625 11.2573 152.689 11.3215 152.774 11.3635C152.859 11.4055 152.959 11.4228 153.057 11.4126C153.554 11.3981 154.053 11.3942 154.549 11.4137C154.661 11.4243 154.773 11.4031 154.867 11.3536C154.961 11.3042 155.031 11.2298 155.063 11.1433C156.088 9.4304 157.119 7.72019 158.156 6.01265C158.426 5.56615 158.7 5.12126 158.973 4.6753C159.001 4.67906 159.03 4.68264 159.059 4.68605L159.059 8.61749V12.3002C159.059 12.6426 159.06 12.6426 159.487 12.6426L161.672 12.6425C162.012 12.6417 162.022 12.6245 162.023 12.3343C162.023 8.52647 162.023 4.71854 162.023 0.910487C162.023 0.634559 161.993 0.607501 161.644 0.606784C161.226 0.605887 160.808 0.605709 160.389 0.606249C159.804 0.606426 159.218 0.606784 158.632 0.60392C158.546 0.598963 158.46 0.61699 158.387 0.655256C158.314 0.693521 158.259 0.749928 158.229 0.815883C156.858 3.06523 155.482 5.3128 154.101 7.55857C154.025 7.68328 153.942 7.80511 153.843 7.95759C153.775 7.86854 153.724 7.81264 153.686 7.75136C152.264 5.45041 150.844 3.14838 149.427 0.84527C149.391 0.768386 149.325 0.703115 149.238 0.659363C149.152 0.61561 149.05 0.595766 148.949 0.602842H148.938ZM166.42 0.603201C166.063 0.603201 165.984 0.658386 165.982 0.926431C165.977 1.4206 165.979 1.91494 165.981 2.40928C165.982 2.70491 166.048 2.75293 166.444 2.75311C168.25 2.75365 170.056 2.75371 171.862 2.75329C173.649 2.75329 175.437 2.75329 177.225 2.75329C177.641 2.75311 177.708 2.70545 177.709 2.40157C177.71 1.91404 177.711 1.42669 177.708 0.939332C177.706 0.66412 177.622 0.603201 177.256 0.603201C175.45 0.603024 173.644 0.602904 171.838 0.602842C170.032 0.602842 168.226 0.602962 166.42 0.603201M42.6427 0.603201C42.2713 0.603201 42.1942 0.658566 42.1924 0.938077C42.1896 1.43224 42.1895 1.92634 42.1922 2.42039C42.1938 2.70491 42.2602 2.75329 42.6427 2.75329C46.2462 2.75365 49.8497 2.75359 53.4533 2.75311C53.8496 2.75293 53.9189 2.70294 53.92 2.41053C53.9222 1.92318 53.9221 1.43582 53.9198 0.948469C53.9182 0.660357 53.8391 0.603201 53.4533 0.603021C52.5547 0.602842 51.6561 0.602782 50.7574 0.602842H45.8941C44.8101 0.602842 43.7263 0.602962 42.6427 0.603201ZM97.7862 0.602842L96.8448 0.606426L94.8331 0.606249L94.7334 0.61037C94.5757 0.622554 94.5479 0.666093 94.5432 0.819646L94.5421 0.914787L94.5423 7.0628C94.5424 7.17698 94.5986 7.28649 94.6987 7.36724C94.7988 7.44798 94.9346 7.49334 95.0761 7.49335H97.6032C97.7444 7.49338 97.8798 7.4483 97.98 7.36799C98.0801 7.28768 98.1367 7.17866 98.1374 7.06477L98.1414 0.861928C98.1417 0.663406 98.041 0.602842 97.796 0.602842H97.7862Z" fill="white"></path>
  <path d="M6.16944 9.79014C6.10712 9.79013 6.04542 9.80002 5.98785 9.81925C5.93027 9.83848 5.87796 9.86667 5.8339 9.90221C5.78984 9.93775 5.75489 9.97995 5.73105 10.0264C5.7072 10.0728 5.69494 10.1226 5.69495 10.1729V12.2781C5.69493 12.3284 5.70719 12.3782 5.73103 12.4246C5.75487 12.4711 5.78981 12.5133 5.83387 12.5489C5.87794 12.5844 5.93025 12.6126 5.98782 12.6319C6.0454 12.6511 6.10711 12.661 6.16944 12.661H14.4747C14.6006 12.661 14.7214 12.6207 14.8104 12.5489C14.8994 12.4771 14.9494 12.3797 14.9494 12.2781V10.1729C14.9494 10.1226 14.9371 10.0728 14.9133 10.0264C14.8894 9.97993 14.8544 9.93773 14.8104 9.90219C14.7663 9.86665 14.714 9.83847 14.6564 9.81924C14.5988 9.80001 14.5371 9.79012 14.4747 9.79014H6.16944ZM8.06783 5.19664C8.00551 5.19666 7.94379 5.20657 7.88622 5.22582C7.82864 5.24506 7.77633 5.27327 7.73227 5.30883C7.68821 5.34438 7.65326 5.38659 7.62943 5.43304C7.60559 5.47949 7.59333 5.52927 7.59335 5.57954V7.68483C7.59333 7.7351 7.6056 7.78487 7.62944 7.8313C7.65328 7.87774 7.68823 7.91994 7.73229 7.95548C7.77636 7.99102 7.82867 8.01921 7.88624 8.03844C7.94381 8.05767 8.00552 8.06756 8.06783 8.06755H16.3731C16.499 8.06754 16.6196 8.02721 16.7086 7.95544C16.7976 7.88367 16.8476 7.78633 16.8476 7.68483V5.57954C16.8476 5.47802 16.7976 5.38066 16.7086 5.30886C16.6197 5.23705 16.499 5.19669 16.3731 5.19664L8.06783 5.19664ZM0.474486 0.603149C0.412173 0.60314 0.350467 0.613033 0.292895 0.632263C0.235323 0.651493 0.183011 0.679684 0.138949 0.715224C0.0948863 0.750764 0.0599363 0.792958 0.0360952 0.839396C0.012254 0.885833 -1.1275e-05 0.935604 8.32365e-09 0.985866V7.68483C-1.16642e-05 7.73509 0.0122533 7.78487 0.0360944 7.8313C0.0599354 7.87774 0.0948854 7.91994 0.138948 7.95548C0.18301 7.99102 0.235322 8.01921 0.292895 8.03844C0.350467 8.05767 0.412173 8.06756 0.474486 8.06755H3.08461C3.14693 8.06756 3.20865 8.05767 3.26624 8.03845C3.32383 8.01922 3.37615 7.99103 3.42024 7.95549C3.46432 7.91996 3.49929 7.87776 3.52315 7.83132C3.54701 7.78488 3.5593 7.7351 3.55932 7.68483V0.985866C3.5593 0.935595 3.54701 0.885818 3.52315 0.839378C3.49929 0.792938 3.46432 0.750744 3.42023 0.715206C3.37615 0.679667 3.32383 0.65148 3.26624 0.632253C3.20865 0.613026 3.14693 0.603137 3.08461 0.603149H0.474486ZM6.16944 0.603149C6.10712 0.60314 6.04542 0.613033 5.98785 0.632263C5.93027 0.651493 5.87796 0.679683 5.8339 0.715223C5.78984 0.750764 5.75489 0.792958 5.73105 0.839395C5.7072 0.885833 5.69494 0.935604 5.69495 0.985866V3.09117C5.69493 3.14144 5.70719 3.19122 5.73103 3.23767C5.75487 3.28412 5.78981 3.32633 5.83387 3.36188C5.87793 3.39744 5.93025 3.42564 5.98782 3.44489C6.0454 3.46414 6.10711 3.47405 6.16944 3.47406H14.4747C14.6006 3.47405 14.7214 3.4337 14.8104 3.3619C14.8994 3.2901 14.9494 3.19271 14.9494 3.09117V2.35924C14.9494 2.09266 14.8181 1.83702 14.5845 1.64845L13.6531 0.897354C13.4194 0.708984 13.1026 0.60316 12.7723 0.603149H6.16944Z" fill="white"></path>
  <path d="M0.474486 11.321C0.412173 11.321 0.350467 11.3309 0.292894 11.3501C0.235322 11.3694 0.18301 11.3975 0.138948 11.4331C0.0948854 11.4686 0.0599354 11.5108 0.0360944 11.5573C0.0122533 11.6037 -1.1657e-05 11.6535 1.55403e-08 11.7037V12.2778C-1.59334e-05 12.3281 0.0122445 12.3779 0.0360813 12.4243C0.0599181 12.4708 0.0948644 12.513 0.138925 12.5485C0.182985 12.5841 0.235297 12.6123 0.292873 12.6315C0.350448 12.6508 0.412161 12.6607 0.474486 12.6607H1.18644C1.24877 12.6607 1.31048 12.6508 1.36806 12.6315C1.42563 12.6123 1.47794 12.5841 1.522 12.5485C1.56606 12.513 1.60101 12.4708 1.62485 12.4243C1.64868 12.3779 1.66094 12.3281 1.66093 12.2778V11.7037C1.66094 11.6535 1.64867 11.6037 1.62483 11.5573C1.60099 11.5108 1.56604 11.4686 1.52198 11.4331C1.47792 11.3975 1.42561 11.3694 1.36803 11.3501C1.31046 11.3309 1.24875 11.321 1.18644 11.321H0.474486ZM2.37288 11.321C2.31056 11.321 2.24886 11.3309 2.19129 11.3501C2.13371 11.3694 2.0814 11.3975 2.03734 11.4331C1.99328 11.4686 1.95833 11.5108 1.93449 11.5573C1.91065 11.6037 1.89838 11.6535 1.89839 11.7037V12.2778C1.89838 12.3281 1.91064 12.3779 1.93447 12.4243C1.95831 12.4708 1.99326 12.513 2.03732 12.5485C2.08138 12.5841 2.13369 12.6123 2.19126 12.6315C2.24884 12.6508 2.31055 12.6607 2.37288 12.6607H3.08461C3.2105 12.6607 3.33124 12.6203 3.42026 12.5485C3.50928 12.4767 3.5593 12.3793 3.55932 12.2778V11.7037C3.5593 11.6535 3.54701 11.6037 3.52315 11.5572C3.49929 11.5108 3.46432 11.4686 3.42023 11.4331C3.37615 11.3975 3.32383 11.3693 3.26624 11.3501C3.20865 11.3309 3.14693 11.321 3.08461 11.321H2.37288ZM0.474486 9.78979C0.412173 9.78979 0.350467 9.79968 0.292895 9.81891C0.235323 9.83814 0.183011 9.86633 0.138949 9.90187C0.0948863 9.93741 0.0599363 9.9796 0.0360952 10.026C0.012254 10.0725 -1.12678e-05 10.1222 1.55403e-08 10.1725V10.7468C-1.1657e-05 10.797 0.0122533 10.8468 0.0360944 10.8932C0.0599354 10.9397 0.0948854 10.9819 0.138948 11.0174C0.18301 11.0529 0.235322 11.0811 0.292894 11.1004C0.350467 11.1196 0.412173 11.1295 0.474486 11.1295H1.18644C1.24875 11.1295 1.31046 11.1196 1.36803 11.1004C1.42561 11.0811 1.47792 11.053 1.52198 11.0174C1.56604 10.9819 1.60099 10.9397 1.62483 10.8932C1.64867 10.8468 1.66094 10.797 1.66093 10.7468V10.1725C1.66094 10.1222 1.64867 10.0725 1.62483 10.026C1.60099 9.9796 1.56604 9.93741 1.52198 9.90187C1.47792 9.86633 1.42561 9.83814 1.36803 9.81891C1.31046 9.79968 1.24875 9.78979 1.18644 9.78979H0.474486ZM2.37288 9.78979C2.31056 9.78979 2.24886 9.79968 2.19129 9.81891C2.13371 9.83814 2.0814 9.86633 2.03734 9.90187C1.99328 9.93741 1.95833 9.9796 1.93449 10.026C1.91065 10.0725 1.89838 10.1222 1.89839 10.1725V10.7468C1.89838 10.797 1.91065 10.8468 1.93449 10.8932C1.95833 10.9397 1.99328 10.9819 2.03734 11.0174C2.0814 11.053 2.13371 11.0811 2.19129 11.1004C2.24886 11.1196 2.31056 11.1295 2.37288 11.1295H3.08461C3.14693 11.1295 3.20865 11.1196 3.26624 11.1004C3.32383 11.0812 3.37615 11.053 3.42023 11.0174C3.46432 10.9819 3.49929 10.9397 3.52315 10.8933C3.54701 10.8468 3.5593 10.797 3.55932 10.7468V10.1725C3.5593 10.1222 3.54701 10.0725 3.52315 10.026C3.49929 9.97958 3.46432 9.93739 3.42023 9.90185C3.37615 9.86631 3.32383 9.83813 3.26624 9.8189C3.20865 9.79967 3.14693 9.78978 3.08461 9.78979H2.37288Z" fill="#3DA33B"></path>
</svg>
